<svg xmlns="http://www.w3.org/2000/svg" xmlns:xlink="http://www.w3.org/1999/xlink" enable-background="new 0 0 1366 768" height="171.05" viewBox="0 0 190 50.000001" width="650"><clipPath id="a"><path d="m396 321.6-27.1-15.6c-2.1-1.2-4.8-1.2-6.9 0l-97.5 56.3c-1.6.9-1.6 3.3 0 4.2l26.9 15.5c2.1 1.2 4.8 1.2 6.9 0l67.2-38.8v81.6l-70.7 40.8-70.7-40.8v-81.6l101-58.3c1.6-.9 1.6-3.3 0-4.3l-26.9-15.5c-2.1-1.2-4.8-1.2-6.9 0l-97.6 56.3c-2.1 1.2-3.5 3.5-3.5 6l-.1 113c0 2.5 1.3 4.8 3.5 6l97.8 56.4c2.1 1.2 4.8 1.2 6.9 0l97.8-56.4c2.1-1.2 3.5-3.5 3.5-6v-112.9c-.2-2.4-1.5-4.7-3.6-5.9z"/></clipPath><linearGradient id="b"><stop offset="0" stop-color="#00bac9"/><stop offset="1" stop-color="#02939f"/></linearGradient><linearGradient id="c" gradientUnits="userSpaceOnUse" x1="382.41641" x2="382.41641" xlink:href="#b" y1="374.77441" y2="303.50989"/><linearGradient id="d" gradientTransform="matrix(-1 0 0 1 -6668.4844 0)" gradientUnits="userSpaceOnUse" x1="-6875.5088" x2="-6875.5088" xlink:href="#b" y1="374.77341" y2="303.50891"/><g transform="matrix(.19212432 0 0 .19212432 -36.221187 -48.45204)"><g clip-path="url(#a)"><path d="m396 321.6-27.1-15.6c-2.1-1.2-4.8-1.2-6.9 0l-97.5 56.3c-1.6.9-1.6 3.3 0 4.2l26.9 15.5c2.1 1.2 4.8 1.2 6.9 0l67.2-38.8v81.6l-70.7 40.8-70.7-40.8v-81.6l101-58.3c1.6-.9 1.6-3.3 0-4.3l-26.9-15.5c-2.1-1.2-4.8-1.2-6.9 0l-97.6 56.3c-2.1 1.2-3.5 3.5-3.5 6l-.1 113c0 2.5 1.3 4.8 3.5 6l97.8 56.4c2.1 1.2 4.8 1.2 6.9 0l97.8-56.4c2.1-1.2 3.5-3.5 3.5-6v-112.9c-.2-2.4-1.5-4.7-3.6-5.9z" fill="#00bac9"/><path d="m294.5 262.9 34.3 19.8-104.7 60.5-35-20.2z" fill="#fff" opacity=".12"/><path d="m364.4 301.3 40.1 19.3-109.8 63.4-34.9-19.7z" fill="#fff" opacity=".12"/><path d="m365.4 424.8 34 19.6-104.7 60.4v-39.3z" fill="#251f20" opacity=".1"/><path d="m365.4 424.8 34 19.6v-120.8l-34 19.6z" fill="url(#c)"/><path d="m224.1 424.8-34.1 19.6v-120.8l34.1 19.6z" fill="url(#d)"/></g><g fill="#FFFFFF"><path d="m558 417.3c-.2-.9-.5-1.5-.9-1.8s-.9-.5-1.5-.5c-.9 0-1.9.5-3.2 1.5s-2.8 2.2-4.7 3.4c-1.9 1.3-4 2.4-6.5 3.4s-5.4 1.5-8.9 1.5c-3.4 0-6.3-.6-8.9-1.8-2.5-1.2-4.7-3.1-6.4-5.5s-3-5.5-3.8-9.1c-.9-3.6-1.3-7.8-1.3-12.6 0-9.7 1.7-17 5.2-22 3.4-5 8.4-7.5 14.9-7.5 3.3 0 6.2.5 8.5 1.4 2.4.9 4.4 2 6.2 3.1 1.7 1.1 3.2 2.2 4.5 3.1s2.4 1.4 3.6 1.4c1.1 0 1.9-.8 2.6-2.3.7-1.6 1-4.3 1-8.1 0-1.7 0-3.1-.1-4.2-.1-1.2-.2-2.1-.4-2.9s-.4-1.4-.7-1.9-.8-1.1-1.5-1.8-2-1.6-3.7-2.6c-1.8-1-3.7-1.9-6-2.7-2.2-.8-4.6-1.4-7.1-1.9s-5.1-.7-7.8-.7c-6.5 0-12.4 1-17.9 3.1-5.4 2.1-10.1 5.2-14.1 9.4s-7.1 9.6-9.3 16c-2.2 6.5-3.3 14.1-3.3 23 0 7.7.9 14.5 2.7 20.5s4.5 11 8.1 15.1 8 7.3 13.3 9.4 11.3 3.2 18.1 3.2c3 0 6-.3 8.9-.8s5.5-1.2 8-2.1c2.4-.9 4.6-1.8 6.6-2.9 1.9-1.1 3.3-2 4.1-2.8s1.3-1.4 1.5-1.9.4-1.1.6-1.9.3-1.8.4-2.9c.1-1.2.1-2.6.1-4.3 0-2.2-.1-4-.2-5.4-.3-1.5-.5-2.7-.7-3.6z"/><path d="m719.5 368.6c1.3 0 2.2-.8 2.9-2.3.7-1.6 1-4.2 1-7.8 0-1.9-.1-3.5-.2-4.9-.2-1.3-.4-2.4-.7-3.1-.3-.8-.7-1.3-1.2-1.6s-1.1-.5-1.7-.5h-19.3v-19.8c0-.7-.2-1.3-.6-1.8s-1.1-1-2-1.3c-.9-.4-2.2-.6-3.8-.8s-3.7-.2-6.1-.2-4.4.1-6 .2c-1.6.2-2.9.4-3.9.8s-1.6.8-2 1.3-.5 1.1-.5 1.8v19.8h-22.7-28.1c-2.2-.6-4.6-1.1-7.1-1.4s-5.2-.5-8-.5c-5.4 0-10.4.7-14.9 2.2s-8.4 3.6-11.6 6.5c-3.2 2.8-5.8 6.3-7.6 10.3-1.8 4.1-2.7 8.7-2.7 13.9 0 4.8.7 8.9 2.1 12.1s3.2 6 5.6 8.3c-2.8 2.6-5.2 5.5-6.9 8.7-1.8 3.2-2.7 6.8-2.7 10.7 0 3.1.8 6 2.3 8.6 1.6 2.6 3.8 4.7 6.6 6.2-2.1 1.5-3.9 3.1-5.5 4.8s-2.9 3.4-4 5.2-1.9 3.7-2.5 5.7-.8 4.1-.8 6.3c0 3.5.8 6.7 2.3 9.7 1.6 2.9 4 5.5 7.4 7.6s7.8 3.8 13.1 5 11.8 1.8 19.3 1.8c7.7 0 14.5-.8 20.3-2.5s10.6-3.9 14.4-6.8c3.8-2.8 6.7-6.2 8.6-10.1s2.9-8 2.9-12.4c0-4-.7-7.5-2.1-10.6s-3.5-5.8-6.2-8-6-3.9-9.9-5.2c-3.9-1.2-8.4-1.9-13.5-2.1l-21.5-.8c-3-.1-5.4-.8-7.1-2s-2.5-2.8-2.5-4.7c0-1.5.3-2.8.9-4s1.3-2.2 2.1-3.1c1.4.9 3.4 1.7 6 2.4s5.3 1 8.1 1c5.6 0 10.6-.7 15.1-2.1s8.4-3.5 11.6-6.3c3.2-2.7 5.7-6.1 7.4-10.1s2.6-8.6 2.6-13.8c0-2.2-.3-4.3-.9-6.3-.5-1.5-1.1-2.8-2-4h32v45.4c0 5.4.6 10.1 1.7 14.1s2.9 7.3 5.3 9.9 5.4 4.6 9 5.8c3.6 1.3 7.9 1.9 12.9 1.9 1.9 0 3.7-.1 5.5-.3s3.5-.5 5.1-.8c1.6-.4 2.9-.8 4.1-1.3s2-1.1 2.6-1.7 1.1-1.7 1.4-3.3c.4-1.6.5-3.8.5-6.7 0-1.9-.1-3.4-.2-4.6-.2-1.2-.3-2.1-.5-2.8s-.5-1.2-.8-1.4c-.4-.2-.7-.3-1.1-.3-.5 0-1 .1-1.5.3-.6.2-1.3.5-2.1.8s-1.8.6-2.8.8c-1.1.2-2.3.3-3.6.3-3.9 0-6.6-1.2-8.1-3.6s-2.3-6-2.3-10.9v-41.6zm-127.2 77.9c.6-1.1 1.5-2.2 2.5-3.3 1-1.2 2.4-2.4 4.1-3.6l17.8.5c4.2.1 7.4 1 9.8 2.6s3.6 3.9 3.6 6.9c0 1.7-.3 3.4-1 4.9-.7 1.6-1.8 3-3.4 4.2-1.6 1.3-3.7 2.3-6.3 3-2.6.8-5.8 1.1-9.5 1.1-6.1 0-10.8-.9-14.1-2.6s-5-4.2-5-7.5c0-1.1.1-2.1.3-3.1s.5-2.1 1.2-3.1zm30.9-62c-.6 1.8-1.6 3.4-2.8 4.8s-2.8 2.5-4.6 3.3c-1.9.8-4 1.2-6.6 1.2-4.7 0-8.4-1.3-11-3.9s-4-6.2-4-10.7c0-2.1.3-4 .9-5.9s1.5-3.5 2.7-5c1.2-1.4 2.8-2.5 4.6-3.4 1.9-.8 4-1.2 6.5-1.2 4.8 0 8.6 1.3 11.2 4 2.6 2.6 4 6.4 4 11.1.1 2-.2 3.9-.9 5.7z"/><path d="m797.5 351.1c-.1-.7-.3-1.2-.4-1.6-.2-.4-.4-.8-.8-1.1s-.9-.6-1.7-.9-1.7-.6-2.8-.8-2.1-.4-3.1-.5-1.9-.1-2.8-.1c-1.9 0-3.7.2-5.6.7s-3.7 1.4-5.6 2.6c-1.9 1.3-3.8 3-5.9 5.1-2.1 2.2-4.2 4.9-6.6 8.2v-11c0-.7-.2-1.2-.5-1.7s-.9-.9-1.6-1.2c-.8-.3-1.8-.6-3.2-.7-1.4-.2-3.1-.2-5.3-.2-2.1 0-3.8.1-5.1.2-1.4.2-2.5.4-3.3.7-.9.3-1.5.7-1.8 1.2s-.5 1.1-.5 1.7v88.6c0 .7.2 1.2.6 1.7s1.1.9 2 1.2c1 .3 2.2.6 3.8.7 1.6.2 3.6.2 6.1.2 2.4 0 4.5-.1 6.1-.2 1.6-.2 2.9-.4 3.8-.7 1-.3 1.6-.7 2-1.2s.6-1.1.6-1.7v-55.3c1.9-2.9 3.6-5.4 5.2-7.3 1.6-2 3.2-3.6 4.7-4.8s2.9-2.1 4.3-2.6c1.4-.6 2.8-.8 4.2-.8 1.2 0 2.3.1 3.3.3s1.9.5 2.7.7c.8.3 1.6.5 2.2.7.7.2 1.3.3 1.8.3.7 0 1.2-.2 1.6-.5s.8-.9 1-1.8c.3-.9.5-2.1.6-3.6s.2-3.5.2-5.9 0-4.3-.1-5.7c.1-1.1 0-2.2-.1-2.9z"/><path d="m874.7 354.3c-3.2-2.8-7.2-4.9-12.2-6.3-4.9-1.4-10.9-2-17.8-2-3.9 0-7.7.3-11.4.9s-7.1 1.4-10.2 2.4-5.8 2.1-8.1 3.2c-2.3 1.2-3.9 2.2-4.9 3.2-.9 1-1.6 2-1.9 3.2s-.5 2.8-.5 4.9c0 1.5.1 2.9.3 4.2s.5 2.3.8 3.2c.4.9.8 1.5 1.4 2s1.2.7 1.9.7c1.1 0 2.4-.5 4.1-1.4s3.8-2 6.3-3.1 5.4-2.1 8.7-3.1c3.3-.9 7-1.4 11.2-1.4 3.2 0 5.8.3 8 1 2.1.7 3.9 1.7 5.2 3.1s2.2 3.1 2.8 5.2.8 4.5.8 7.3v5.4h-8.6c-7.9 0-14.8.6-20.8 1.8s-10.9 3-14.9 5.5-7 5.6-9 9.4-3 8.3-3 13.5c0 4.8.8 8.9 2.4 12.5s3.8 6.6 6.7 9 6.3 4.2 10.2 5.5c3.9 1.2 8.3 1.8 13 1.8 5.7 0 10.9-1.1 15.5-3.3 4.7-2.2 8.8-5.2 12.5-9.1v7c0 .9.3 1.7.8 2.2.6.5 1.5.9 2.9 1.1s3.5.3 6.5.3c2.8 0 4.9-.1 6.3-.3s2.5-.6 3.1-1.1c.7-.5 1-1.3 1-2.2v-59.5c0-6.1-.7-11.4-2.2-15.8-1.4-4.5-3.7-8.1-6.9-10.9zm-15.4 63.4c-3 3.4-6 6.1-9 7.8-2.9 1.8-6.2 2.7-9.7 2.7-4.2 0-7.4-1.1-9.8-3.2s-3.5-5-3.5-8.7c0-2.2.4-4.1 1.2-5.8s2.1-3.1 3.9-4.3 4.1-2.1 6.9-2.7 6.3-.9 10.3-.9h9.5v15.1z"/><path d="m989.8 306.8c-.9-.4-2.2-.6-3.8-.8s-3.6-.3-6.1-.3c-2.4 0-4.5.1-6.1.3s-2.9.5-3.8.8c-1 .4-1.6.8-2 1.3s-.5 1.1-.5 1.8v48c-4-3.9-8-6.9-12-8.9s-8.5-3-13.5-3c-6.3 0-11.8 1.2-16.7 3.6-4.8 2.4-8.9 5.8-12.1 10.2s-5.7 9.8-7.4 16.1-2.5 13.4-2.5 21.2c0 6.6.7 12.8 2 18.7s3.5 11.1 6.4 15.5 6.8 8 11.4 10.6c4.7 2.6 10.4 3.9 17.1 3.9 6.1 0 11.6-1.4 16.6-4.1s9.8-6.5 14.3-11.4v9.8c0 .7.2 1.3.5 1.8.4.5 1 .9 1.8 1.2s1.9.6 3.2.7 3 .2 5.2.2c2 0 3.7-.1 5-.2 1.4-.1 2.4-.4 3.2-.7s1.4-.7 1.7-1.2.5-1.1.5-1.8v-130.1c0-.7-.2-1.3-.6-1.8-.2-.5-.9-1-1.8-1.4zm-22.2 103.6c-2.1 2.6-4.1 4.9-5.9 6.7s-3.5 3.3-5.2 4.4-3.3 1.9-5 2.4c-1.6.5-3.3.7-5 .7-3.4 0-6.3-.8-8.5-2.5-2.3-1.7-4.1-3.9-5.4-6.6-1.4-2.7-2.3-5.9-2.9-9.4s-.9-7.1-.9-10.8c0-3.5.3-6.9 1-10.3.7-3.3 1.8-6.4 3.2-9.1s3.3-4.9 5.7-6.5c2.3-1.6 5.1-2.4 8.4-2.4 3.6 0 7 1.2 10.3 3.6s6.7 5.8 10.3 10.3v29.5z"/><path d="m1089.1 358.4c-3.4-3.9-7.7-6.9-13-9.1s-11.6-3.3-19-3.3c-7 0-13.3 1.2-18.9 3.5s-10.3 5.7-14.2 10.1-6.9 9.8-8.9 16.1c-2.1 6.3-3.1 13.4-3.1 21.3 0 8.3 1 15.5 2.9 21.6 2 6.2 4.9 11.3 8.9 15.3s8.9 7 14.8 9 12.8 3 20.7 3c4.4 0 8.5-.3 12.3-.8 3.8-.6 7.2-1.2 10.2-2s5.4-1.5 7.3-2.3 3.1-1.4 3.5-1.9.8-.9 1-1.4c.3-.5.5-1.1.6-1.8s.2-1.6.3-2.6.1-2.3.1-3.7c0-1.7-.1-3-.1-4.1-.1-1.1-.3-1.9-.5-2.5-.3-.6-.6-1-1-1.2s-.9-.3-1.5-.3c-1 0-2.3.3-3.9.9s-3.6 1.3-6 2.1-5.3 1.5-8.6 2.1-7.1.9-11.5.9c-4.3 0-8-.6-11.1-1.7s-5.6-2.8-7.5-4.9c-2-2.2-3.4-4.8-4.3-7.8-.9-3.1-1.3-6.5-1.3-10.3h53.9c2.4 0 4.3-.7 5.6-2.2 1.4-1.5 2-3.7 2-6.8v-4c0-6.2-.8-12-2.4-17.3-1.5-5.5-4-10.1-7.3-13.9zm-51.8 27.8c.1-3.1.6-6 1.4-8.8.8-2.7 2-5.1 3.6-7.1s3.5-3.6 5.9-4.8c2.3-1.2 5.1-1.8 8.3-1.8 6.3 0 10.9 2 13.9 6s4.4 9.5 4.2 16.5z"/><path d="m1175.8 354.3c-.1-1.4-.2-2.4-.3-3.1s-.3-1.2-.4-1.6c-.2-.4-.4-.8-.8-1.1s-.9-.6-1.7-.9-1.7-.6-2.8-.8-2.1-.4-3.1-.5-1.9-.1-2.8-.1c-1.9 0-3.7.2-5.6.7s-3.7 1.4-5.6 2.6c-1.9 1.3-3.8 3-5.9 5.1-2.1 2.2-4.2 4.9-6.6 8.2v-11c0-.7-.2-1.2-.5-1.7s-.9-.9-1.6-1.2c-.8-.3-1.8-.6-3.2-.7-1.4-.2-3.1-.2-5.3-.2-2.1 0-3.8.1-5.1.2-1.4.2-2.5.4-3.3.7-.9.3-1.5.7-1.8 1.2s-.5 1.1-.5 1.7v88.6c0 .7.2 1.2.6 1.7s1.1.9 2 1.2c1 .3 2.2.6 3.8.7 1.6.2 3.6.2 6.1.2 2.4 0 4.5-.1 6.1-.2 1.6-.2 2.9-.4 3.8-.7 1-.3 1.6-.7 2-1.2s.6-1.1.6-1.7v-55.4c1.9-2.9 3.6-5.4 5.2-7.3 1.6-2 3.2-3.6 4.7-4.8s2.9-2.1 4.3-2.6c1.4-.6 2.8-.8 4.2-.8 1.2 0 2.3.1 3.3.3s1.9.5 2.7.7c.8.3 1.6.5 2.2.7.7.2 1.3.3 1.8.3.7 0 1.2-.2 1.6-.5s.8-.9 1-1.8c.3-.9.5-2.1.6-3.6s.2-3.5.2-5.9c.2-2.2.2-4.1.1-5.4z"/></g></g></svg>