<svg xmlns:xlink="http://www.w3.org/1999/xlink" xmlns="http://www.w3.org/2000/svg" width="525" height="479.1" viewBox="0 0 77 70.268" fill="white">
  <g id="Group_75" data-name="Group 75" transform="translate(1595.568 -738.472)">
    <g id="Group_65" data-name="Group 65" transform="translate(-1595.568 738.472)">
      <g id="Group_61" data-name="Group 61" transform="translate(17.68 0)">
        <circle id="Ellipse_8" data-name="Ellipse 8" cx="6.228" cy="6.228" r="6.228" transform="translate(14.591 11.371)"/>
        <path id="Path_9715" data-name="Path 9715" d="M-1469.175,756.175a9.971,9.971,0,0,0-.488-1.694c-1.942-4.8-8.057-16.009-20.228-16.009s-18.286,11.207-20.228,16.009a9.948,9.948,0,0,0-.488,1.694,4.969,4.969,0,0,0,1.831,4.978,4.943,4.943,0,0,0,2.971.987,4.944,4.944,0,0,0,2.566-.713,4.964,4.964,0,0,0,2-2.423c.9-2.252,4.688-10.564,11.347-10.564s10.444,8.313,11.347,10.564a4.963,4.963,0,0,0,2,2.423,4.944,4.944,0,0,0,2.566.713,4.942,4.942,0,0,0,2.971-.987A4.969,4.969,0,0,0-1469.175,756.175Z" transform="translate(1510.711 -738.472)"/>
      </g>
      <g id="Group_64" data-name="Group 64" transform="translate(0 22.844)">
        <g id="Group_62" data-name="Group 62" transform="translate(40.802)">
          <path id="Path_9716" data-name="Path 9716" d="M-1380.973,849.441h0a4.542,4.542,0,0,1,6.423,0l6.066,6.066a16.883,16.883,0,0,1,0,23.876h0a16.883,16.883,0,0,1-23.876,0l-6.034-6.034a4.587,4.587,0,0,1,0-6.487h0a4.587,4.587,0,0,1,6.487,0l6.186,6.186a7.754,7.754,0,0,0,10.966,0h0a7.754,7.754,0,0,0,0-10.966l-6.218-6.218A4.542,4.542,0,0,1-1380.973,849.441Z" transform="translate(1399.737 -848.111)"/>
          <circle id="Ellipse_9" data-name="Ellipse 9" cx="5.288" cy="5.288" r="5.288" transform="translate(4.141 11.638) rotate(-45)"/>
        </g>
        <g id="Group_63" data-name="Group 63">
          <path id="Path_9717" data-name="Path 9717" d="M-1578.134,849.441h0a4.542,4.542,0,0,0-6.423,0l-6.066,6.066a16.883,16.883,0,0,0,0,23.876h0a16.882,16.882,0,0,0,23.876,0l6.034-6.034a4.587,4.587,0,0,0,0-6.487h0a4.587,4.587,0,0,0-6.487,0l-6.186,6.186a7.754,7.754,0,0,1-10.966,0h0a7.754,7.754,0,0,1,0-10.966l6.218-6.218A4.542,4.542,0,0,0-1578.134,849.441Z" transform="translate(1595.568 -848.111)"/>
          <circle id="Ellipse_10" data-name="Ellipse 10" cx="5.288" cy="5.288" r="5.288" transform="translate(10.63 18.108) rotate(-45)"/>
        </g>
      </g>
    </g>
    <g id="Group_66" data-name="Group 66" transform="translate(-1595.568 799.137)">
      <path id="Path_9718" data-name="Path 9718" d="M-1594.429,1039.563v1.6h1.968a.556.556,0,0,1,.4.15.508.508,0,0,1,.159.387.482.482,0,0,1-.159.355.546.546,0,0,1-.4.155h-1.968v2.123a.523.523,0,0,1-.169.4.558.558,0,0,1-.4.159.57.57,0,0,1-.414-.155.534.534,0,0,1-.16-.4v-5.266a.538.538,0,0,1,.16-.4.538.538,0,0,1,.4-.159h2.961a.555.555,0,0,1,.4.151.509.509,0,0,1,.159.387.483.483,0,0,1-.159.355.546.546,0,0,1-.4.155Z" transform="translate(1595.568 -1036.666)"/>
      <path id="Path_9719" data-name="Path 9719" d="M-1563.106,1038.627a.562.562,0,0,1,.146.4v3.3a2.748,2.748,0,0,1-.319,1.339,2.3,2.3,0,0,1-.893.911,2.6,2.6,0,0,1-1.312.328,2.625,2.625,0,0,1-1.317-.328,2.293,2.293,0,0,1-.9-.911,2.744,2.744,0,0,1-.319-1.339v-3.3a.53.53,0,0,1,.164-.4.576.576,0,0,1,.419-.159.532.532,0,0,1,.383.159.53.53,0,0,1,.164.4v3.3a1.567,1.567,0,0,0,.191.779,1.335,1.335,0,0,0,.515.524,1.4,1.4,0,0,0,.7.182,1.532,1.532,0,0,0,.733-.182,1.4,1.4,0,0,0,.547-.524,1.485,1.485,0,0,0,.2-.779v-3.3a.584.584,0,0,1,.137-.4.472.472,0,0,1,.374-.155A.5.5,0,0,1-1563.106,1038.627Z" transform="translate(1573.757 -1036.631)"/>
      <path id="Path_9720" data-name="Path 9720" d="M-1529.02,1038.661a.512.512,0,0,1,.137.364v5.312a.538.538,0,0,1-.159.4.538.538,0,0,1-.4.159.791.791,0,0,1-.251-.041.356.356,0,0,1-.178-.114l-3.344-4.246v3.891a.5.5,0,0,1-.141.365.491.491,0,0,1-.369.146.466.466,0,0,1-.355-.146.512.512,0,0,1-.136-.365v-5.312a.538.538,0,0,1,.159-.4.538.538,0,0,1,.4-.159.7.7,0,0,1,.269.055.434.434,0,0,1,.2.146l3.317,4.228v-3.918a.5.5,0,0,1,.141-.364.48.48,0,0,1,.36-.146A.465.465,0,0,1-1529.02,1038.661Z" transform="translate(1546.996 -1036.666)"/>
      <path id="Path_9721" data-name="Path 9721" d="M-1494.893,1038.939a2.7,2.7,0,0,1,.938,1.148,3.928,3.928,0,0,1,.323,1.617,3.925,3.925,0,0,1-.323,1.617,2.694,2.694,0,0,1-.938,1.148,2.53,2.53,0,0,1-1.472.424h-2.178a.538.538,0,0,1-.4-.159.538.538,0,0,1-.159-.4v-5.266a.539.539,0,0,1,.159-.4.539.539,0,0,1,.4-.159h2.178A2.531,2.531,0,0,1-1494.893,1038.939Zm-.333,4.3a2.682,2.682,0,0,0,.41-1.535,2.66,2.66,0,0,0-.414-1.535,1.389,1.389,0,0,0-1.225-.606h-1.5v4.282h1.5A1.386,1.386,0,0,0-1495.226,1043.239Z" transform="translate(1519.198 -1036.666)"/>
      <path id="Path_9722" data-name="Path 9722" d="M-1462.278,1044.253a.516.516,0,0,1-.155.387.5.5,0,0,1-.355.15.478.478,0,0,1-.3-.1.651.651,0,0,1-.205-.273l-.474-1.1h-2.715l-.474,1.112a.562.562,0,0,1-.2.269.48.48,0,0,1-.287.1.477.477,0,0,1-.36-.128.478.478,0,0,1-.123-.346.606.606,0,0,1,.027-.173l2.269-5.449a.606.606,0,0,1,.219-.283.477.477,0,0,1,.328-.082.533.533,0,0,1,.305.1.539.539,0,0,1,.205.269l2.241,5.339A.611.611,0,0,1-1462.278,1044.253Zm-3.754-1.986h1.822l-.92-2.132Z" transform="translate(1494.514 -1036.517)"/>
      <path id="Path_9723" data-name="Path 9723" d="M-1430.614,1044.01a.492.492,0,0,1-.073.264.473.473,0,0,1-.209.182,3.456,3.456,0,0,1-1.421.355l-.365.993a.385.385,0,0,1-.373.292.793.793,0,0,1-.383-.118.346.346,0,0,1-.21-.3.437.437,0,0,1,.109-.273l.483-.647a3.373,3.373,0,0,1-1.344-.533,2.831,2.831,0,0,1-.943-1.094,3.51,3.51,0,0,1-.346-1.6,3.289,3.289,0,0,1,.424-1.667,3.01,3.01,0,0,1,1.171-1.153,3.416,3.416,0,0,1,1.686-.414,3.247,3.247,0,0,1,1.5.355.488.488,0,0,1,.282.465.616.616,0,0,1-.137.373.451.451,0,0,1-.374.191.655.655,0,0,1-.31-.082,2.246,2.246,0,0,0-.966-.21,2.214,2.214,0,0,0-1.112.269,1.823,1.823,0,0,0-.729.756,2.37,2.37,0,0,0-.255,1.116,2.159,2.159,0,0,0,.579,1.631,2.1,2.1,0,0,0,1.517.556,2.1,2.1,0,0,0,.966-.21.736.736,0,0,1,.292-.073.5.5,0,0,1,.4.2A.591.591,0,0,1-1430.614,1044.01Z" transform="translate(1469 -1036.493)"/>
      <path id="Path_9724" data-name="Path 9724" d="M-1400.967,1037.374a.516.516,0,0,1-.155.387.5.5,0,0,1-.355.15.478.478,0,0,1-.3-.1.65.65,0,0,1-.205-.273l-.474-1.1h-2.715l-.474,1.112a.562.562,0,0,1-.2.269.481.481,0,0,1-.287.1.477.477,0,0,1-.36-.128.477.477,0,0,1-.123-.346.6.6,0,0,1,.027-.173l2.269-5.449a.6.6,0,0,1,.219-.282.476.476,0,0,1,.328-.082.533.533,0,0,1,.305.1.541.541,0,0,1,.205.269l2.241,5.339A.618.618,0,0,1-1400.967,1037.374Zm-4.382-6.392a.715.715,0,0,1-.146-.469.734.734,0,0,1,.273-.556,1.061,1.061,0,0,1,.738-.246,1.109,1.109,0,0,1,.446.091,4.906,4.906,0,0,1,.492.255q.191.109.3.164a.486.486,0,0,0,.205.055.211.211,0,0,0,.155-.055.123.123,0,0,0,.027-.137.354.354,0,0,1-.018-.127.3.3,0,0,1,.1-.232.347.347,0,0,1,.242-.087.445.445,0,0,1,.355.177.689.689,0,0,1,.146.451.789.789,0,0,1-.1.364.883.883,0,0,1-.3.324.818.818,0,0,1-.469.132,1.311,1.311,0,0,1-.492-.091q-.228-.091-.574-.264-.2-.109-.319-.159a.553.553,0,0,0-.21-.05.21.21,0,0,0-.155.055.124.124,0,0,0-.027.137.355.355,0,0,1,.018.128.3.3,0,0,1-.1.232.345.345,0,0,1-.241.087A.444.444,0,0,1-1405.35,1030.982Zm.629,4.405h1.822l-.92-2.132Z" transform="translate(1445.978 -1029.638)"/>
      <path id="Path_9725" data-name="Path 9725" d="M-1368.592,1043.012a3.072,3.072,0,0,1-1.107,1.189,2.959,2.959,0,0,1-1.59.437,2.959,2.959,0,0,1-1.59-.437,3.037,3.037,0,0,1-1.1-1.189,3.49,3.49,0,0,1-.4-1.654,3.489,3.489,0,0,1,.4-1.654,3.038,3.038,0,0,1,1.1-1.189,2.957,2.957,0,0,1,1.59-.437,2.957,2.957,0,0,1,1.59.437,3.073,3.073,0,0,1,1.107,1.189,3.461,3.461,0,0,1,.4,1.654A3.461,3.461,0,0,1-1368.592,1043.012Zm-1.03-2.761a1.986,1.986,0,0,0-.683-.788,1.736,1.736,0,0,0-.984-.292,1.747,1.747,0,0,0-.989.287,1.927,1.927,0,0,0-.674.788,2.53,2.53,0,0,0-.241,1.112,2.528,2.528,0,0,0,.241,1.112,1.924,1.924,0,0,0,.674.788,1.747,1.747,0,0,0,.989.287,1.735,1.735,0,0,0,.984-.291,1.986,1.986,0,0,0,.683-.788,2.463,2.463,0,0,0,.246-1.107A2.461,2.461,0,0,0-1369.622,1040.251Z" transform="translate(1420.463 -1036.319)"/>
      <path id="Path_9726" data-name="Path 9726" d="M-1317.929,1039.117a.616.616,0,0,1-.137.373.45.45,0,0,1-.373.191.656.656,0,0,1-.31-.082,2.244,2.244,0,0,0-.966-.21,2.214,2.214,0,0,0-1.112.269,1.822,1.822,0,0,0-.729.756,2.368,2.368,0,0,0-.255,1.116,2.158,2.158,0,0,0,.579,1.631,2.1,2.1,0,0,0,1.517.556,2.1,2.1,0,0,0,.966-.21.736.736,0,0,1,.292-.073.5.5,0,0,1,.4.2.592.592,0,0,1,.136.374.493.493,0,0,1-.073.264.472.472,0,0,1-.21.182,3.337,3.337,0,0,1-1.512.355,3.576,3.576,0,0,1-1.64-.378,2.907,2.907,0,0,1-1.194-1.116,3.388,3.388,0,0,1-.446-1.786,3.287,3.287,0,0,1,.424-1.667,3.008,3.008,0,0,1,1.171-1.153,3.416,3.416,0,0,1,1.686-.414,3.247,3.247,0,0,1,1.5.355A.488.488,0,0,1-1317.929,1039.117Z" transform="translate(1379.786 -1036.493)"/>
      <path id="Path_9727" data-name="Path 9727" d="M-1287.067,1044a.508.508,0,0,1,.159.369.484.484,0,0,1-.159.374.566.566,0,0,1-.4.146h-3.052a.538.538,0,0,1-.4-.159.538.538,0,0,1-.159-.4v-5.266a.539.539,0,0,1,.159-.4.539.539,0,0,1,.4-.159h3.052a.555.555,0,0,1,.4.151.509.509,0,0,1,.159.387.475.475,0,0,1-.155.369.571.571,0,0,1-.4.141h-2.469v1.549h2.059a.556.556,0,0,1,.4.15.509.509,0,0,1,.159.387.476.476,0,0,1-.155.369.572.572,0,0,1-.4.141h-2.059v1.686h2.469A.539.539,0,0,1-1287.067,1044Z" transform="translate(1354.514 -1036.666)"/>
      <path id="Path_9728" data-name="Path 9728" d="M-1258.469,1041.941a1.6,1.6,0,0,1,.305,1.011,1.709,1.709,0,0,1-.62,1.512,2.53,2.53,0,0,1-1.476.428h-2.269a.538.538,0,0,1-.4-.159.538.538,0,0,1-.159-.4v-5.266a.538.538,0,0,1,.159-.4.538.538,0,0,1,.4-.159h2.3q1.731,0,1.731,1.622a1.342,1.342,0,0,1-.2.724,1.359,1.359,0,0,1-.561.5A1.838,1.838,0,0,1-1258.469,1041.941Zm-1.4-2.164a.709.709,0,0,0-.524-.187h-1.5v1.422h1.531a.7.7,0,0,0,.478-.182.625.625,0,0,0,.205-.492A.762.762,0,0,0-1259.872,1039.777Zm.282,3.84a.872.872,0,0,0,.241-.665.747.747,0,0,0-.282-.7,1.357,1.357,0,0,0-.692-.164h-1.576v1.759h1.64A.938.938,0,0,0-1259.59,1043.617Z" transform="translate(1332.358 -1036.666)"/>
      <path id="Path_9729" data-name="Path 9729" d="M-1230.5,1044.734a.573.573,0,0,1-.4.159.55.55,0,0,1-.406-.159.539.539,0,0,1-.159-.4v-5.266a.53.53,0,0,1,.164-.4.578.578,0,0,1,.419-.159.543.543,0,0,1,.392.159.531.531,0,0,1,.164.4v5.266A.516.516,0,0,1-1230.5,1044.734Z" transform="translate(1307.329 -1036.666)"/>
    </g>
  </g>
</svg>